{"accessors":[{"bufferView":0,"byteOffset":0,"componentType":5126,"count":12,"max":[66.6,2e-15,3.18500000000088],"min":[1.4e-14,-1e-15,-3.185000000000915],"type":"VEC3"},{"bufferView":0,"byteOffset":144,"componentType":5126,"count":42,"max":[66.52379856111637,1e-15,66.58094691490335],"min":[-30.50360836950537,-6e-15,3.185000000000001],"type":"VEC3"},{"bufferView":0,"byteOffset":648,"componentType":5126,"count":4,"max":[2.75829091105343,2e-15,3.185000000000001],"min":[1.4e-14,0.0,-2.4e-14],"type":"VEC3"},{"bufferView":0,"byteOffset":696,"componentType":5126,"count":4,"max":[2.75829091105343,0.0,-2.4e-14],"min":[1.4e-14,-1e-15,-3.185000000000001],"type":"VEC3"},{"bufferView":0,"byteOffset":744,"componentType":5126,"count":42,"max":[66.52379856111637,0.0,-3.185000000000001],"min":[-30.503608369505315,-2.6e-14,-66.58094691490336],"type":"VEC3"},{"bufferView":0,"byteOffset":1248,"componentType":5126,"count":5,"max":[66.6,0.0,0.0],"min":[66.52379856111637,-1e-15,-3.185000000000915],"type":"VEC3"},{"bufferView":0,"byteOffset":1308,"componentType":5126,"count":5,"max":[66.6,1e-15,3.18500000000088],"min":[66.52379856111637,0.0,0.0],"type":"VEC3"},{"bufferView":0,"byteOffset":1368,"componentType":5126,"count":272,"max":[66.6,1250.0,66.58094691490335],"min":[-66.6,-2.6e-14,-66.58094691490336],"type":"VEC3"},{"bufferView":0,"byteOffset":4632,"componentType":5126,"count":12,"max":[1.838860607368957,1e-15,59.20379951016527],"min":[-36.020190191610496,-8e-15,-2.4e-14],"type":"VEC3"},{"bufferView":0,"byteOffset":4776,"componentType":5126,"count":12,"max":[1.838860607368954,0.0,7e-15],"min":[-36.020190191610496,-2.6e-14,-59.2037995101653],"type":"VEC3"},{"bufferView":0,"byteOffset":4920,"componentType":5126,"count":6,"max":[186.6,240.0,-3.185],"min":[66.52379856111637,-1e-15,-3.185000000000915],"type":"VEC3"},{"bufferView":0,"byteOffset":4992,"componentType":5126,"count":5,"max":[186.6,1e-15,3.185],"min":[66.6,-1e-15,-3.185],"type":"VEC3"},{"bufferView":0,"byteOffset":5052,"componentType":5126,"count":6,"max":[186.6,240.0,3.18500000000088],"min":[66.52379856111637,0.0,3.184999999999947],"type":"VEC3"},{"bufferView":0,"byteOffset":5124,"componentType":5126,"count":6,"max":[-30.503608369504782,239.99999999999994,-59.2037995101653],"min":[-90.54170908894655,-1.47e-13,-163.19284034617633],"type":"VEC3"},{"bufferView":0,"byteOffset":5196,"componentType":5126,"count":5,"max":[-30.503608369504782,240.0,-57.677291892043776],"min":[-33.300000000000075,239.99999999999994,-59.26979189204378],"type":"VEC3"},{"bufferView":0,"byteOffset":5256,"componentType":5126,"count":5,"max":[-33.300000000000075,240.0,-56.01879951016554],"min":[-36.05829091105352,239.99999999999994,-57.677291892043776],"type":"VEC3"},{"bufferView":0,"byteOffset":5316,"componentType":5126,"count":6,"max":[-36.020190191610496,239.99999999999994,-56.01879951016554],"min":[-96.05829091105342,-1.47e-13,-160.00784034617632],"type":"VEC3"},{"bufferView":0,"byteOffset":5388,"componentType":5126,"count":42,"max":[-3.677721214737918,0.0,56.018799510166374],"min":[-66.6,-2.6e-14,-56.018799510166374],"type":"VEC3"},{"bufferView":0,"byteOffset":5892,"componentType":5126,"count":6,"max":[-36.020190191610496,240.0,160.0078403461762],"min":[-96.05829091105355,-4.1e-14,56.018799510165444],"type":"VEC3"},{"bufferView":0,"byteOffset":5964,"componentType":5126,"count":5,"max":[-33.300000000000054,240.0,57.67729189204364],"min":[-36.05829091105361,239.99999999999997,56.018799510165444],"type":"VEC3"},{"bufferView":0,"byteOffset":6024,"componentType":5126,"count":5,"max":[-30.503608369504935,240.0,59.26979189204358],"min":[-33.300000000000054,240.0,57.67729189204364],"type":"VEC3"},{"bufferView":0,"byteOffset":6084,"componentType":5126,"count":6,"max":[-30.503608369504935,240.0,163.1928403461762],"min":[-90.54170908894667,-3.8e-14,59.20379951016527],"type":"VEC3"},{"bufferView":0,"byteOffset":6156,"componentType":5126,"count":5,"max":[66.6,240.0,3.184999999999947],"min":[66.52379856111645,240.0,0.0],"type":"VEC3"},{"bufferView":0,"byteOffset":6216,"componentType":5126,"count":4820,"max":[66.6,1500.0,66.57929952125437],"min":[-66.6,1250.0,-66.57929952125436],"type":"VEC3"},{"bufferView":0,"byteOffset":64056,"componentType":5126,"count":5,"max":[66.6,240.0,0.0],"min":[66.52379856111645,240.0,-3.185000000000053],"type":"VEC3"},{"bufferView":0,"byteOffset":64116,"componentType":5126,"count":5,"max":[-30.50360836950537,0.0,59.2697918920436],"min":[-33.2999995875969,-1.2e-14,57.67729213014465],"type":"VEC3"},{"bufferView":0,"byteOffset":64176,"componentType":5126,"count":5,"max":[-33.2999995875969,0.0,57.67729213014465],"min":[-36.05829091105346,-1.6e-14,56.018799510166374],"type":"VEC3"},{"bufferView":0,"byteOffset":64236,"componentType":5126,"count":4,"max":[1.4e-14,0.0,1.592499999999987],"min":[-3.677721214737918,-2e-15,-1.592499999999989],"type":"VEC3"},{"bufferView":0,"byteOffset":64284,"componentType":5126,"count":5,"max":[-33.299999616628405,0.0,-56.018799510166374],"min":[-36.05829091105342,-5.3e-14,-57.677292113383295],"type":"VEC3"},{"bufferView":0,"byteOffset":64344,"componentType":5126,"count":5,"max":[-30.503608369505315,0.0,-57.677292113383295],"min":[-33.299999616628405,-5.2e-14,-59.269791892043614],"type":"VEC3"},{"bufferView":0,"byteOffset":64404,"componentType":5126,"count":4,"max":[186.6,60.0,3.185],"min":[186.6,-1e-15,-3.185000000000013],"type":"VEC3"},{"bufferView":0,"byteOffset":64452,"componentType":5126,"count":5,"max":[186.6,240.0,3.184999999999987],"min":[66.6,60.0,-3.185000000000053],"type":"VEC3"},{"bufferView":0,"byteOffset":64512,"componentType":5126,"count":5,"max":[-30.541709088946547,-2.6e-14,-56.08479189204361],"min":[-96.05829091105339,-1.47e-13,-163.19284034617627],"type":"VEC3"},{"bufferView":0,"byteOffset":64572,"componentType":5126,"count":4,"max":[-90.54170908894655,59.99999999999985,-160.0078403461763],"min":[-96.05829091105345,-1.47e-13,-163.19284034617635],"type":"VEC3"},{"bufferView":0,"byteOffset":64620,"componentType":5126,"count":5,"max":[-30.541709088946643,239.99999999999994,-56.084791892043775],"min":[-96.05829091105342,59.99999999999985,-163.19284034617633],"type":"VEC3"},{"bufferView":0,"byteOffset":64680,"componentType":5126,"count":5,"max":[-30.54170908894659,-7e-15,163.1928403461762],"min":[-96.05829091105352,-4.1e-14,56.0847918920436],"type":"VEC3"},{"bufferView":0,"byteOffset":64740,"componentType":5126,"count":4,"max":[-90.54170908894666,59.99999999999997,163.19284034617627],"min":[-96.05829091105356,-4.0999999999999996e-14,160.00784034617624],"type":"VEC3"},{"bufferView":0,"byteOffset":64788,"componentType":5126,"count":5,"max":[-30.54170908894673,240.0,163.1928403461762],"min":[-96.05829091105355,59.99999999999996,56.084791892043576],"type":"VEC3"},{"bufferView":1,"byteOffset":0,"componentType":5126,"count":12,"type":"VEC3"},{"bufferView":1,"byteOffset":144,"componentType":5126,"count":42,"type":"VEC3"},{"bufferView":1,"byteOffset":648,"componentType":5126,"count":4,"type":"VEC3"},{"bufferView":1,"byteOffset":696,"componentType":5126,"count":4,"type":"VEC3"},{"bufferView":1,"byteOffset":744,"componentType":5126,"count":42,"type":"VEC3"},{"bufferView":1,"byteOffset":1248,"componentType":5126,"count":5,"type":"VEC3"},{"bufferView":1,"byteOffset":1308,"componentType":5126,"count":5,"type":"VEC3"},{"bufferView":1,"byteOffset":1368,"componentType":5126,"count":272,"type":"VEC3"},{"bufferView":1,"byteOffset":4632,"componentType":5126,"count":12,"type":"VEC3"},{"bufferView":1,"byteOffset":4776,"componentType":5126,"count":12,"type":"VEC3"},{"bufferView":1,"byteOffset":4920,"componentType":5126,"count":6,"type":"VEC3"},{"bufferView":1,"byteOffset":4992,"componentType":5126,"count":5,"type":"VEC3"},{"bufferView":1,"byteOffset":5052,"componentType":5126,"count":6,"type":"VEC3"},{"bufferView":1,"byteOffset":5124,"componentType":5126,"count":6,"type":"VEC3"},{"bufferView":1,"byteOffset":5196,"componentType":5126,"count":5,"type":"VEC3"},{"bufferView":1,"byteOffset":5256,"componentType":5126,"count":5,"type":"VEC3"},{"bufferView":1,"byteOffset":5316,"componentType":5126,"count":6,"type":"VEC3"},{"bufferView":1,"byteOffset":5388,"componentType":5126,"count":42,"type":"VEC3"},{"bufferView":1,"byteOffset":5892,"componentType":5126,"count":6,"type":"VEC3"},{"bufferView":1,"byteOffset":5964,"componentType":5126,"count":5,"type":"VEC3"},{"bufferView":1,"byteOffset":6024,"componentType":5126,"count":5,"type":"VEC3"},{"bufferView":1,"byteOffset":6084,"componentType":5126,"count":6,"type":"VEC3"},{"bufferView":1,"byteOffset":6156,"componentType":5126,"count":5,"type":"VEC3"},{"bufferView":1,"byteOffset":6216,"componentType":5126,"count":4820,"type":"VEC3"},{"bufferView":1,"byteOffset":64056,"componentType":5126,"count":5,"type":"VEC3"},{"bufferView":1,"byteOffset":64116,"componentType":5126,"count":5,"type":"VEC3"},{"bufferView":1,"byteOffset":64176,"componentType":5126,"count":5,"type":"VEC3"},{"bufferView":1,"byteOffset":64236,"componentType":5126,"count":4,"type":"VEC3"},{"bufferView":1,"byteOffset":64284,"componentType":5126,"count":5,"type":"VEC3"},{"bufferView":1,"byteOffset":64344,"componentType":5126,"count":5,"type":"VEC3"},{"bufferView":1,"byteOffset":64404,"componentType":5126,"count":4,"type":"VEC3"},{"bufferView":1,"byteOffset":64452,"componentType":5126,"count":5,"type":"VEC3"},{"bufferView":1,"byteOffset":64512,"componentType":5126,"count":5,"type":"VEC3"},{"bufferView":1,"byteOffset":64572,"componentType":5126,"count":4,"type":"VEC3"},{"bufferView":1,"byteOffset":64620,"componentType":5126,"count":5,"type":"VEC3"},{"bufferView":1,"byteOffset":64680,"componentType":5126,"count":5,"type":"VEC3"},{"bufferView":1,"byteOffset":64740,"componentType":5126,"count":4,"type":"VEC3"},{"bufferView":1,"byteOffset":64788,"componentType":5126,"count":5,"type":"VEC3"},{"bufferView":2,"byteOffset":0,"componentType":5126,"count":12,"type":"VEC2"},{"bufferView":2,"byteOffset":96,"componentType":5126,"count":42,"type":"VEC2"},{"bufferView":2,"byteOffset":432,"componentType":5126,"count":4,"type":"VEC2"},{"bufferView":2,"byteOffset":464,"componentType":5126,"count":4,"type":"VEC2"},{"bufferView":2,"byteOffset":496,"componentType":5126,"count":42,"type":"VEC2"},{"bufferView":2,"byteOffset":832,"componentType":5126,"count":5,"type":"VEC2"},{"bufferView":2,"byteOffset":872,"componentType":5126,"count":5,"type":"VEC2"},{"bufferView":2,"byteOffset":912,"componentType":5126,"count":272,"type":"VEC2"},{"bufferView":2,"byteOffset":3088,"componentType":5126,"count":12,"type":"VEC2"},{"bufferView":2,"byteOffset":3184,"componentType":5126,"count":12,"type":"VEC2"},{"bufferView":2,"byteOffset":3280,"componentType":5126,"count":6,"type":"VEC2"},{"bufferView":2,"byteOffset":3328,"componentType":5126,"count":5,"type":"VEC2"},{"bufferView":2,"byteOffset":3368,"componentType":5126,"count":6,"type":"VEC2"},{"bufferView":2,"byteOffset":3416,"componentType":5126,"count":6,"type":"VEC2"},{"bufferView":2,"byteOffset":3464,"componentType":5126,"count":5,"type":"VEC2"},{"bufferView":2,"byteOffset":3504,"componentType":5126,"count":5,"type":"VEC2"},{"bufferView":2,"byteOffset":3544,"componentType":5126,"count":6,"type":"VEC2"},{"bufferView":2,"byteOffset":3592,"componentType":5126,"count":42,"type":"VEC2"},{"bufferView":2,"byteOffset":3928,"componentType":5126,"count":6,"type":"VEC2"},{"bufferView":2,"byteOffset":3976,"componentType":5126,"count":5,"type":"VEC2"},{"bufferView":2,"byteOffset":4016,"componentType":5126,"count":5,"type":"VEC2"},{"bufferView":2,"byteOffset":4056,"componentType":5126,"count":6,"type":"VEC2"},{"bufferView":2,"byteOffset":4104,"componentType":5126,"count":5,"type":"VEC2"},{"bufferView":2,"byteOffset":4144,"componentType":5126,"count":4820,"type":"VEC2"},{"bufferView":2,"byteOffset":42704,"componentType":5126,"count":5,"type":"VEC2"},{"bufferView":2,"byteOffset":42744,"componentType":5126,"count":5,"type":"VEC2"},{"bufferView":2,"byteOffset":42784,"componentType":5126,"count":5,"type":"VEC2"},{"bufferView":2,"byteOffset":42824,"componentType":5126,"count":4,"type":"VEC2"},{"bufferView":2,"byteOffset":42856,"componentType":5126,"count":5,"type":"VEC2"},{"bufferView":2,"byteOffset":42896,"componentType":5126,"count":5,"type":"VEC2"},{"bufferView":2,"byteOffset":42936,"componentType":5126,"count":4,"type":"VEC2"},{"bufferView":2,"byteOffset":42968,"componentType":5126,"count":5,"type":"VEC2"},{"bufferView":2,"byteOffset":43008,"componentType":5126,"count":5,"type":"VEC2"},{"bufferView":2,"byteOffset":43048,"componentType":5126,"count":4,"type":"VEC2"},{"bufferView":2,"byteOffset":43080,"componentType":5126,"count":5,"type":"VEC2"},{"bufferView":2,"byteOffset":43120,"componentType":5126,"count":5,"type":"VEC2"},{"bufferView":2,"byteOffset":43160,"componentType":5126,"count":4,"type":"VEC2"},{"bufferView":2,"byteOffset":43192,"componentType":5126,"count":5,"type":"VEC2"},{"bufferView":3,"byteOffset":0,"componentType":5123,"count":30,"type":"SCALAR"},{"bufferView":3,"byteOffset":60,"componentType":5123,"count":120,"type":"SCALAR"},{"bufferView":3,"byteOffset":300,"componentType":5123,"count":6,"type":"SCALAR"},{"bufferView":3,"byteOffset":312,"componentType":5123,"count":6,"type":"SCALAR"},{"bufferView":3,"byteOffset":324,"componentType":5123,"count":120,"type":"SCALAR"},{"bufferView":3,"byteOffset":564,"componentType":5123,"count":9,"type":"SCALAR"},{"bufferView":3,"byteOffset":584,"componentType":5123,"count":9,"type":"SCALAR"},{"bufferView":3,"byteOffset":604,"componentType":5123,"count":810,"type":"SCALAR"},{"bufferView":3,"byteOffset":2224,"componentType":5123,"count":30,"type":"SCALAR"},{"bufferView":3,"byteOffset":2284,"componentType":5123,"count":30,"type":"SCALAR"},{"bufferView":3,"byteOffset":2344,"componentType":5123,"count":12,"type":"SCALAR"},{"bufferView":3,"byteOffset":2368,"componentType":5123,"count":9,"type":"SCALAR"},{"bufferView":3,"byteOffset":2388,"componentType":5123,"count":12,"type":"SCALAR"},{"bufferView":3,"byteOffset":2412,"componentType":5123,"count":12,"type":"SCALAR"},{"bufferView":3,"byteOffset":2436,"componentType":5123,"count":9,"type":"SCALAR"},{"bufferView":3,"byteOffset":2456,"componentType":5123,"count":9,"type":"SCALAR"},{"bufferView":3,"byteOffset":2476,"componentType":5123,"count":12,"type":"SCALAR"},{"bufferView":3,"byteOffset":2500,"componentType":5123,"count":120,"type":"SCALAR"},{"bufferView":3,"byteOffset":2740,"componentType":5123,"count":12,"type":"SCALAR"},{"bufferView":3,"byteOffset":2764,"componentType":5123,"count":9,"type":"SCALAR"},{"bufferView":3,"byteOffset":2784,"componentType":5123,"count":9,"type":"SCALAR"},{"bufferView":3,"byteOffset":2804,"componentType":5123,"count":12,"type":"SCALAR"},{"bufferView":3,"byteOffset":2828,"componentType":5123,"count":9,"type":"SCALAR"},{"bufferView":3,"byteOffset":2848,"componentType":5123,"count":28401,"type":"SCALAR"},{"bufferView":3,"byteOffset":59652,"componentType":5123,"count":9,"type":"SCALAR"},{"bufferView":3,"byteOffset":59672,"componentType":5123,"count":9,"type":"SCALAR"},{"bufferView":3,"byteOffset":59692,"componentType":5123,"count":9,"type":"SCALAR"},{"bufferView":3,"byteOffset":59712,"componentType":5123,"count":6,"type":"SCALAR"},{"bufferView":3,"byteOffset":59724,"componentType":5123,"count":9,"type":"SCALAR"},{"bufferView":3,"byteOffset":59744,"componentType":5123,"count":9,"type":"SCALAR"},{"bufferView":3,"byteOffset":59764,"componentType":5123,"count":6,"type":"SCALAR"},{"bufferView":3,"byteOffset":59776,"componentType":5123,"count":9,"type":"SCALAR"},{"bufferView":3,"byteOffset":59796,"componentType":5123,"count":9,"type":"SCALAR"},{"bufferView":3,"byteOffset":59816,"componentType":5123,"count":6,"type":"SCALAR"},{"bufferView":3,"byteOffset":59828,"componentType":5123,"count":9,"type":"SCALAR"},{"bufferView":3,"byteOffset":59848,"componentType":5123,"count":9,"type":"SCALAR"},{"bufferView":3,"byteOffset":59868,"componentType":5123,"count":6,"type":"SCALAR"},{"bufferView":3,"byteOffset":59880,"componentType":5123,"count":9,"type":"SCALAR"}],"asset":{"generator":"Open CASCADE Technology [www.opencascade.com]","version":"2.0"},"bufferViews":[{"buffer":0,"byteLength":64848,"byteOffset":0,"byteStride":12,"target":34962},{"buffer":0,"byteLength":64848,"byteOffset":64848,"byteStride":12,"target":34962},{"buffer":0,"byteLength":43232,"byteOffset":129696,"byteStride":8,"target":34962},{"buffer":0,"byteLength":59900,"byteOffset":172928,"target":34963}],"buffers":[{"byteLength":232828,"uri":"rocket.bin"}],"materials":[{"name":"mat_0","pbrMetallicRoughness":{"baseColorFactor":[0.6038273572921753,0.6038273572921753,0.6038273572921753,1.0]},"doubleSided":true}],"meshes":[{"name":"Body","primitives":[{"attributes":{"NORMAL":38,"POSITION":0,"TEXCOORD_0":76},"indices":114,"material":0,"mode":4},{"attributes":{"NORMAL":39,"POSITION":1,"TEXCOORD_0":77},"indices":115,"material":0,"mode":4},{"attributes":{"NORMAL":40,"POSITION":2,"TEXCOORD_0":78},"indices":116,"material":0,"mode":4},{"attributes":{"NORMAL":41,"POSITION":3,"TEXCOORD_0":79},"indices":117,"material":0,"mode":4},{"attributes":{"NORMAL":42,"POSITION":4,"TEXCOORD_0":80},"indices":118,"material":0,"mode":4},{"attributes":{"NORMAL":43,"POSITION":5,"TEXCOORD_0":81},"indices":119,"material":0,"mode":4},{"attributes":{"NORMAL":44,"POSITION":6,"TEXCOORD_0":82},"indices":120,"material":0,"mode":4},{"attributes":{"NORMAL":45,"POSITION":7,"TEXCOORD_0":83},"indices":121,"material":0,"mode":4},{"attributes":{"NORMAL":46,"POSITION":8,"TEXCOORD_0":84},"indices":122,"material":0,"mode":4},{"attributes":{"NORMAL":47,"POSITION":9,"TEXCOORD_0":85},"indices":123,"material":0,"mode":4},{"attributes":{"NORMAL":48,"POSITION":10,"TEXCOORD_0":86},"indices":124,"material":0,"mode":4},{"attributes":{"NORMAL":49,"POSITION":11,"TEXCOORD_0":87},"indices":125,"material":0,"mode":4},{"attributes":{"NORMAL":50,"POSITION":12,"TEXCOORD_0":88},"indices":126,"material":0,"mode":4},{"attributes":{"NORMAL":51,"POSITION":13,"TEXCOORD_0":89},"indices":127,"material":0,"mode":4},{"attributes":{"NORMAL":52,"POSITION":14,"TEXCOORD_0":90},"indices":128,"material":0,"mode":4},{"attributes":{"NORMAL":53,"POSITION":15,"TEXCOORD_0":91},"indices":129,"material":0,"mode":4},{"attributes":{"NORMAL":54,"POSITION":16,"TEXCOORD_0":92},"indices":130,"material":0,"mode":4},{"attributes":{"NORMAL":55,"POSITION":17,"TEXCOORD_0":93},"indices":131,"material":0,"mode":4},{"attributes":{"NORMAL":56,"POSITION":18,"TEXCOORD_0":94},"indices":132,"material":0,"mode":4},{"attributes":{"NORMAL":57,"POSITION":19,"TEXCOORD_0":95},"indices":133,"material":0,"mode":4},{"attributes":{"NORMAL":58,"POSITION":20,"TEXCOORD_0":96},"indices":134,"material":0,"mode":4},{"attributes":{"NORMAL":59,"POSITION":21,"TEXCOORD_0":97},"indices":135,"material":0,"mode":4},{"attributes":{"NORMAL":60,"POSITION":22,"TEXCOORD_0":98},"indices":136,"material":0,"mode":4},{"attributes":{"NORMAL":61,"POSITION":23,"TEXCOORD_0":99},"indices":137,"material":0,"mode":4},{"attributes":{"NORMAL":62,"POSITION":24,"TEXCOORD_0":100},"indices":138,"material":0,"mode":4},{"attributes":{"NORMAL":63,"POSITION":25,"TEXCOORD_0":101},"indices":139,"material":0,"mode":4},{"attributes":{"NORMAL":64,"POSITION":26,"TEXCOORD_0":102},"indices":140,"material":0,"mode":4},{"attributes":{"NORMAL":65,"POSITION":27,"TEXCOORD_0":103},"indices":141,"material":0,"mode":4},{"attributes":{"NORMAL":66,"POSITION":28,"TEXCOORD_0":104},"indices":142,"material":0,"mode":4},{"attributes":{"NORMAL":67,"POSITION":29,"TEXCOORD_0":105},"indices":143,"material":0,"mode":4},{"attributes":{"NORMAL":68,"POSITION":30,"TEXCOORD_0":106},"indices":144,"material":0,"mode":4},{"attributes":{"NORMAL":69,"POSITION":31,"TEXCOORD_0":107},"indices":145,"material":0,"mode":4},{"attributes":{"NORMAL":70,"POSITION":32,"TEXCOORD_0":108},"indices":146,"material":0,"mode":4},{"attributes":{"NORMAL":71,"POSITION":33,"TEXCOORD_0":109},"indices":147,"material":0,"mode":4},{"attributes":{"NORMAL":72,"POSITION":34,"TEXCOORD_0":110},"indices":148,"material":0,"mode":4},{"attributes":{"NORMAL":73,"POSITION":35,"TEXCOORD_0":111},"indices":149,"material":0,"mode":4},{"attributes":{"NORMAL":74,"POSITION":36,"TEXCOORD_0":112},"indices":150,"material":0,"mode":4},{"attributes":{"NORMAL":75,"POSITION":37,"TEXCOORD_0":113},"indices":151,"material":0,"mode":4}]}],"nodes":[{"mesh":0,"name":"Body"}],"scene":0,"scenes":[{"nodes":[0]}]}